<?xml version="1.0" standalone="no"?>
<!DOCTYPE svg PUBLIC "-//W3C//DTD SVG 20010904//EN"
 "http://www.w3.org/TR/2001/REC-SVG-20010904/DTD/svg10.dtd">
<svg version="1.0" xmlns="http://www.w3.org/2000/svg"
 width="140.000000pt" height="140.000000pt" viewBox="0 0 140.000000 140.000000"
 preserveAspectRatio="xMidYMid meet">
<metadata>
Created by potrace 1.11, written by Peter Selinger 2001-2013
</metadata>
<g transform="translate(0.000000,140.000000) scale(0.100000,-0.100000)"
fill="#000000" stroke="none">
<path d="M550 1386 c-254 -61 -438 -230 -522 -482 -20 -59 -23 -88 -22 -204 0
-118 4 -145 27 -215 74 -223 234 -381 462 -456 100 -33 309 -34 407 -2 174 57
310 163 398 311 63 107 90 196 97 323 18 324 -176 606 -487 709 -82 27 -277
36 -360 16z"/>
</g>
</svg>
